<?xml version="1.0" standalone="no"?>
<!DOCTYPE svg PUBLIC "-//W3C//DTD SVG 20010904//EN"
 "http://www.w3.org/TR/2001/REC-SVG-20010904/DTD/svg10.dtd">
<svg version="1.0" xmlns="http://www.w3.org/2000/svg"
 width="700.000000pt" height="700.000000pt" viewBox="0 0 700.000000 700.000000"
 preserveAspectRatio="xMidYMid meet">
<metadata>
Created by potrace 1.14, written by Peter Selinger 2001-2017
</metadata>
<g transform="translate(0.000000,700.000000) scale(0.100000,-0.100000)"
fill="#000000" stroke="none">
<path d="M3578 6015 c-2 -2 -32 -5 -68 -9 -181 -17 -387 -98 -591 -232 -163
-107 -304 -228 -519 -445 -146 -148 -140 -142 -374 -399 -88 -96 -162 -177
-166 -180 -3 -3 -52 -57 -109 -120 -58 -63 -112 -122 -120 -131 -33 -33 -131
-147 -206 -239 -42 -52 -85 -105 -95 -116 -80 -95 -232 -357 -275 -475 -109
-295 -84 -603 75 -944 265 -566 925 -1240 1505 -1537 145 -74 346 -150 460
-174 11 -2 31 -6 45 -9 82 -17 180 -26 285 -27 129 0 187 6 344 37 52 10 202
56 280 86 140 53 446 217 526 282 6 4 51 38 101 75 273 201 521 450 718 717
36 50 69 95 73 101 12 15 26 38 91 149 59 99 115 205 146 278 9 20 23 52 31
70 50 116 108 324 136 494 21 129 29 385 15 495 -38 300 -99 507 -227 775
-144 300 -414 645 -682 875 -34 29 -68 59 -76 66 -32 31 -175 135 -266 195
-232 151 -524 278 -720 312 -22 4 -49 9 -60 11 -73 12 -269 26 -277 19z"/>
</g>
</svg>
